<svg id="Layer_1" data-name="Layer 1" xmlns="http://www.w3.org/2000/svg" viewBox="0 0 60 55"><path d="M28.09,26.89c-.26-2-.89-4.12-3.41-4.65a14.47,14.47,0,0,0-2.8-.32,53.9,53.9,0,0,0-11.69,1.54C8.6,23.8,7,24.19,5.3,24.59l5.24.56a19.08,19.08,0,0,1,6.81,1.75A14.43,14.43,0,0,1,23.06,32a23.44,23.44,0,0,1,2.8,8.9,4.44,4.44,0,0,1,1.52,1.39,3,3,0,0,1,.87-1.74c0-1.17,0-2.76,0-4.22A74.82,74.82,0,0,0,28.09,26.89Z" style="fill:#3c5163"/><path d="M28.28,37.59c0,1.08,0,2.14,0,3a3.05,3.05,0,0,0-.87,1.75,4.44,4.44,0,0,0-1.52-1.39,23.44,23.44,0,0,0-2.8-8.9,14.45,14.45,0,0,0-5.72-5.13,19,19,0,0,0-6.8-1.75L5.3,24.59h0l5.25-.25a19.08,19.08,0,0,1,7,.66A14.47,14.47,0,0,1,24,29.17a23.18,23.18,0,0,1,4.15,8.36Z" style="fill:#3d4c56"/><path d="M54.66,24.6c-1.78.19-3.56.39-5.36.57a19.57,19.57,0,0,0-6.94,1.76,14.64,14.64,0,0,0-5.83,5.16,17,17,0,0,0-1.38,2.68A27.25,27.25,0,0,0,33.52,41l0,.21a3.26,3.26,0,0,0-1.13,1.18,3.27,3.27,0,0,0-1.13-2.15q0-.87,0-1.83c0-.61,0-1.24,0-1.92a73.89,73.89,0,0,1,.21-9.53c.25-2,.9-4.15,3.47-4.69a15.18,15.18,0,0,1,2.86-.32,56.3,56.3,0,0,1,12,1.55c1.58.32,3.16.71,4.87,1.1h0Z" style="fill:#aa1f23"/><path d="M31.47,38.06a27.62,27.62,0,0,1,2.41-5.94,17.09,17.09,0,0,1,1.72-2.47,14.73,14.73,0,0,1,6.45-4.36,19.57,19.57,0,0,1,7.12-.84l5.39.13.1,0c-1.78.19-3.56.39-5.36.57a19.57,19.57,0,0,0-6.94,1.76,14.64,14.64,0,0,0-5.83,5.16,17,17,0,0,0-1.38,2.68A27.25,27.25,0,0,0,33.52,41l0,.21a3.26,3.26,0,0,0-1.13,1.18,3.27,3.27,0,0,0-1.13-2.15c0-.58,0-.76,0-1.4Z" style="fill:#8d2f37"/><path d="M48.11,17.56a38,38,0,0,1-11.47,2.29c-3.23,0-4.36-1.08-4.61-4.42A55.74,55.74,0,0,1,33.22,1.58c.16,1.19.32,2.37.49,3.55a20.93,20.93,0,0,0,1.4,5.34c1.87,4.37,5.35,6.46,9.94,6.93C46.06,17.51,47.09,17.51,48.11,17.56Z" style="fill:#3c5163"/><path d="M40.59,8.44a2.37,2.37,0,0,1,2.08,2.69,2.43,2.43,0,0,1-4.81-.67A2.37,2.37,0,0,1,40.59,8.44Z" style="fill:#aa1f23"/><path d="M18,13.54a2.64,2.64,0,0,1-2.36-3.08,2.64,2.64,0,0,1,3.11-2.31,2.67,2.67,0,0,1,2.29,3.14A2.64,2.64,0,0,1,18,13.54Z" style="fill:#3c5163"/><path d="M15.6,20a42.13,42.13,0,0,0,5.15,0c1-.07,1.94-.18,2.9-.33a6.74,6.74,0,0,0,2.3-.69c1.45-.83,1.79-2.82,1.93-4.35a42.3,42.3,0,0,0-.26-8.35A52.94,52.94,0,0,1,25,11.35a19.22,19.22,0,0,1-1.65,2.43,8.85,8.85,0,0,1-2.64,2,34.11,34.11,0,0,1-5.2,1.92q-2.9,1-5.82,1.84C11.62,19.7,13.61,19.88,15.6,20Z" style="fill:#aa1f23"/><path d="M58.88,29.72l-4.12.4-.41,1.37,1.79-.09c-.73.81-5.91,19.84-5.91,19.84l-.2-.07a4.42,4.42,0,0,0-.48-.15c-6.38-1.63-16.83-1.94-16.83-1.94a49.72,49.72,0,0,1,18.45,4.33.06.06,0,0,0,.08,0l7.69-23.61S58.92,29.71,58.88,29.72Z" style="fill:#aa1f23"/><path d="M49,48.65l6.25-22.79s0-.05,0-.05C41.36,26.89,39.58,30,39.58,30c4.3-2.06,12.14-2.36,13-2.38,0,0,.05,0,0,.05C51.83,29.17,48.25,47,48.25,47Z" style="fill:#aa1f23"/><path d="M11,48.66,4.74,25.87s0-.05,0-.05C18.64,26.9,20.42,30,20.42,30c-4.3-2.06-12.14-2.36-13-2.38a0,0,0,0,0,0,.06C8.17,29.18,11.75,47,11.75,47Z" style="fill:#3c5163"/><path d="M1.12,29.71l4.12.4.41,1.37-1.79-.09c.73.81,5.91,19.84,5.91,19.84l.2-.07.48-.15c6.38-1.63,16.82-1.64,16.82-1.64a52.23,52.23,0,0,0-18.44,4,.06.06,0,0,1-.08,0L1.06,29.76S1.08,29.71,1.12,29.71Z" style="fill:#3c5163"/><path d="M13.66,47.44c-.1-.49-.19-1-.29-1.46a5.43,5.43,0,0,0-.13-.54A1.14,1.14,0,0,0,13,45l0,0s0,0,0,0,.08-.14.26-.22a4.12,4.12,0,0,1,.48-.15c.13,0,.21,0,.22.06v.06a7.85,7.85,0,0,0,.15,1.23c.08.47.14.77.17.92a1.88,1.88,0,0,0,.1.35,1.47,1.47,0,0,1,.05.17l0,.08a.43.43,0,0,0,.09.1.34.34,0,0,0,.31.07.52.52,0,0,0,.29-.13.42.42,0,0,0,.15-.23,1.33,1.33,0,0,0,.08-.44v-.08c0-.25-.07-.54-.14-.88s-.11-.55-.13-.65a2.06,2.06,0,0,0-.07-.25c0-.07,0-.13,0-.18s0-.09,0-.12a.13.13,0,0,1,0,0,.09.09,0,0,1,0-.1.92.92,0,0,1,.29-.17,2.07,2.07,0,0,1,.36-.11c.11,0,.17,0,.17,0a.58.58,0,0,1,0,.18,10.22,10.22,0,0,0,.23,2,4.28,4.28,0,0,0,.38,1.29.31.31,0,0,1,0,.09.15.15,0,0,1,0,.06A.75.75,0,0,1,16,48c-.18,0-.29,0-.32-.08a.82.82,0,0,1-.09-.26l0-.06s0,0,0,0l-.06,0a1.11,1.11,0,0,1-.18.32.85.85,0,0,1-.24.2,1,1,0,0,1-.34.13.78.78,0,0,1-.37,0,.81.81,0,0,1-.31-.14,1.59,1.59,0,0,1-.2-.24A1.54,1.54,0,0,1,13.66,47.44Z" style="fill:#3c5163"/><path d="M17.06,47.8a8.14,8.14,0,0,0-.14-1.36,6.29,6.29,0,0,0-.23-1s0-.08.16-.1a.38.38,0,0,1,.38.13s0,0,0,0h0a.8.8,0,0,1,.52-.25.89.89,0,0,1,.62.09.6.6,0,0,1,.29.47c0,.13,0,.32.05.57a5.05,5.05,0,0,0,0,.54,1,1,0,0,0,.25.59l0,.05s-.05.07-.15.09q-.69.09-.78-.48a2.62,2.62,0,0,1,0-.62,2.53,2.53,0,0,0,0-.61c0-.28-.19-.4-.44-.36a.39.39,0,0,0-.26.14.35.35,0,0,0-.06.24,3.32,3.32,0,0,0,.06.48c.06.36.13.67.2.94l0,.11c0,.1,0,.18-.16.26a.93.93,0,0,1-.33.13C17.12,47.86,17.07,47.84,17.06,47.8Z" style="fill:#3c5163"/><path d="M19.64,47.23c0-.41-.08-.82-.11-1.22a1.14,1.14,0,0,0-.19-.58l-.09-.07s0,0,0,0,.08-.14.26-.22a2,2,0,0,1,.42-.15C20,45,20,45,20,45s0,.27,0,.6.06.67.1,1a2.13,2.13,0,0,0,.16.66.17.17,0,0,1,0,.05s-.06.08-.2.1a1.15,1.15,0,0,1-.44,0S19.65,47.32,19.64,47.23Zm.09-2.69h-.14c-.1,0-.17,0-.19.09s0,0,0,0-.08-.07-.1-.22,0-.25,0-.3a.42.42,0,0,1,.26-.1.36.36,0,0,1,.27,0,.25.25,0,0,1,.09.19.25.25,0,0,1,0,.2A.25.25,0,0,1,19.73,44.54Z" style="fill:#3c5163"/><path d="M20.64,45.2V45s0-.05.07-.06l.2,0c0-.14,0-.28-.07-.41v0c0-.07.05-.16.17-.25a1.07,1.07,0,0,1,.36-.15s.05,0,.05,0h0c0,.09,0,.34,0,.73a1.59,1.59,0,0,0,.31-.05h.08s0,0,0,.06a.28.28,0,0,1,0,.16c0,.07-.08.11-.13.12l-.24,0c0,.12,0,.32.07.6s.06.51.08.69.05.32.07.41,0,.16,0,.22a1,1,0,0,1,0,.12l0,0s0,.06-.07.07a2.08,2.08,0,0,1-.43,0q-.22,0-.24-.18a14.17,14.17,0,0,0-.11-1.9l-.23,0h0S20.65,45.24,20.64,45.2Z" style="fill:#3c5163"/><path d="M24.1,46.29a.81.81,0,0,1-.05.36.62.62,0,0,1-.18.23,1,1,0,0,1-.24.14,1.51,1.51,0,0,1-.34.08.82.82,0,0,1-.72-.27,1.64,1.64,0,0,1-.12-1.75.93.93,0,0,1,.8-.47.71.71,0,0,1,.72.27.4.4,0,0,1,.09.23,1.36,1.36,0,0,1,0,.18,1,1,0,0,1-.07.2.67.67,0,0,1-.16.25,1.17,1.17,0,0,1-.33.23,2.09,2.09,0,0,1-.55.17s-.05,0,0,0a.3.3,0,0,0,0,.14,1,1,0,0,0,.1.15.43.43,0,0,0,.37.11.6.6,0,0,0,.4-.18.77.77,0,0,0,.13-.2.08.08,0,0,1,.05-.05s0,0,.06.06A.16.16,0,0,1,24.1,46.29Zm-1.28-.59,0,.13s0,0,.05,0a.76.76,0,0,0,.31-.11.52.52,0,0,0,.18-.18.7.7,0,0,0,.12-.34v-.07c0-.18-.1-.27-.27-.26a.37.37,0,0,0-.28.17A1,1,0,0,0,22.82,45.7Z" style="fill:#3c5163"/><path d="M25.7,44.47a.51.51,0,0,1,.18,0l.09,0,0,0L26,43.9a.61.61,0,0,0-.08-.25.38.38,0,0,0-.11-.13l-.05,0s0,0,0,0,.08-.12.26-.2a1,1,0,0,1,.41-.12c.1,0,.16,0,.17,0a5.6,5.6,0,0,1,0,.68c0,.33,0,.66,0,1s0,.69,0,1.1a2.12,2.12,0,0,0,.12.76.25.25,0,0,1,0,.07s-.07.08-.23.09-.45,0-.46-.18,0-.15,0-.26v-.66c0-.32,0-.57,0-.74a.24.24,0,0,0-.29-.25.45.45,0,0,0-.41.33,1.38,1.38,0,0,0-.11.62c0,.43.16.64.39.62l.09,0a.1.1,0,0,1,.06,0s0,0,.07.05a.19.19,0,0,1,0,.1.35.35,0,0,1-.13.31.48.48,0,0,1-.35.14.52.52,0,0,1-.52-.24,1.27,1.27,0,0,1-.22-.67,1.82,1.82,0,0,1,.19-1,1,1,0,0,1,.35-.38A1,1,0,0,1,25.7,44.47Z" style="fill:#3c5163"/><path d="M29.4,44.38a16.72,16.72,0,0,0,.1,2.13c0,.08-.08.15-.25.21a1.32,1.32,0,0,1-.42.09c-.11,0-.16,0-.17-.05a.45.45,0,0,1,0-.08,7.22,7.22,0,0,0,.07-1.77,4.46,4.46,0,0,0-.17-1.63l0,0a.1.1,0,0,1,0-.07s0,0,.06-.07a1.87,1.87,0,0,1,.31-.1,2.08,2.08,0,0,1,.4,0c.12,0,.18,0,.18.07v0A12.14,12.14,0,0,0,29.4,44.38Z" style="fill:#c42127"/><path d="M30.17,46.74a8.71,8.71,0,0,0,.1-1.36,5.3,5.3,0,0,0-.06-1c0-.05.06-.07.17-.07a.35.35,0,0,1,.35.18s0,0,0,0h0a.74.74,0,0,1,.55-.16.87.87,0,0,1,.58.18.6.6,0,0,1,.2.51,5.49,5.49,0,0,1,0,.57c0,.24,0,.42,0,.54a1,1,0,0,0,.14.62s0,0,0,.05,0,.07-.16.07c-.45,0-.67-.21-.67-.59a2.27,2.27,0,0,1,.12-.62,2.6,2.6,0,0,0,.11-.59c0-.28-.12-.43-.36-.43a.36.36,0,0,0-.28.1.38.38,0,0,0-.11.23c0,.08,0,.24,0,.48s0,.68,0,1v.12c0,.1-.07.17-.2.23a1.07,1.07,0,0,1-.35.08C30.22,46.81,30.17,46.78,30.17,46.74Z" style="fill:#c42127"/><path d="M36.38,45.72c.07,0,.1.09.09.26a1,1,0,0,1-.14.44.83.83,0,0,1-.26.29,1.19,1.19,0,0,1-.34.16,1.31,1.31,0,0,1-1.1-.07,1.27,1.27,0,0,1-.38-.34,1.63,1.63,0,0,1-.2-.44,2.62,2.62,0,0,1-.09-.8,4.59,4.59,0,0,1,.12-.77,2.76,2.76,0,0,1,.3-.68,1.41,1.41,0,0,1,.53-.5,1.54,1.54,0,0,1,.78-.16,1.39,1.39,0,0,1,.38.09,1,1,0,0,1,.31.15.75.75,0,0,1,.21.27.74.74,0,0,1,.07.4.86.86,0,0,1-.16.42.53.53,0,0,1-.2.15.56.56,0,0,1-.3,0,.37.37,0,0,1-.35-.24.29.29,0,0,1,0-.18c0-.07,0-.11.08-.12a.26.26,0,0,0,.15-.1.4.4,0,0,0,.09-.22.26.26,0,0,0,0-.17.35.35,0,0,0-.31-.15.5.5,0,0,0-.38.15,1,1,0,0,0-.28.42,3,3,0,0,0-.23.95,1.86,1.86,0,0,0,.09.72.88.88,0,0,0,.37.46.9.9,0,0,0,.34.09A.8.8,0,0,0,36.1,46a.82.82,0,0,0,.2-.25A.1.1,0,0,1,36.38,45.72Z" style="fill:#c42127"/><path d="M38,44.23c0,.16,0,.33-.05.5a.05.05,0,0,0,0,0l0,0a.89.89,0,0,1,.46,0,.76.76,0,0,1,.68.39.59.59,0,0,1,0,.33c0,.13,0,.31-.08.54s-.07.4-.09.5a1.09,1.09,0,0,0,.08.69.07.07,0,0,1,0,.06s-.08,0-.24,0c-.43,0-.62-.25-.58-.63a2.4,2.4,0,0,1,.18-.61,2.46,2.46,0,0,0,.17-.57.45.45,0,0,0-.06-.3.35.35,0,0,0-.26-.13.49.49,0,0,0-.28,0,.32.32,0,0,0-.13.13l0,.07c0,.07,0,.28-.06.63a4.27,4.27,0,0,0,0,.7c0,.11,0,.17,0,.18s-.09.18-.24.25a.9.9,0,0,1-.44.08S37,47.06,37,47l0-.1A14.45,14.45,0,0,0,37.31,45a7.32,7.32,0,0,0,0-.81v-.12a.51.51,0,0,0,0-.25.39.39,0,0,0-.09-.15l0,0s0,0,0,0,.09-.1.28-.16a1.38,1.38,0,0,1,.43-.07c.1,0,.15,0,.15.07A7,7,0,0,1,38,44.23Z" style="fill:#c42127"/><path d="M41.41,46v.19c0,.06-.09.09-.22.07s-.4-.15-.37-.34a.62.62,0,0,1,.06-.18.74.74,0,0,0,.07-.21.23.23,0,0,0,0-.16.24.24,0,0,0-.16-.08.25.25,0,0,0-.19,0,.29.29,0,0,0-.12.13l0,.07a3.35,3.35,0,0,0-.1.53c0,.26-.06.45-.07.6s0,.24,0,.3v.1c0,.08-.08.15-.2.19a.86.86,0,0,1-.35,0c-.12,0-.17,0-.16-.09s0-.1,0-.16a7.09,7.09,0,0,0,.23-1.17,5.17,5.17,0,0,0,.06-1s0-.06.13,0a.41.41,0,0,1,.39.24s0,0,0,0,0,0,.09,0a.72.72,0,0,1,.46-.09.87.87,0,0,1,.31.1.48.48,0,0,1,.26.54Z" style="fill:#c42127"/><path d="M41.91,47.36c.09-.4.17-.8.25-1.2a1.13,1.13,0,0,0,0-.6.22.22,0,0,0-.07-.09.05.05,0,0,1,0,0c0-.06.12-.11.32-.14a1.93,1.93,0,0,1,.44,0c.09,0,.13,0,.13.09s-.06.26-.13.58-.14.66-.2,1a1.86,1.86,0,0,0,0,.67.13.13,0,0,1,0,.06s-.09.06-.23,0a1,1,0,0,1-.41-.16S41.9,47.46,41.91,47.36Zm.87-2.56-.14,0a.22.22,0,0,0-.21,0h0s-.07-.09,0-.24.06-.25.12-.29a.47.47,0,0,1,.28,0,.39.39,0,0,1,.25.1.23.23,0,0,1,0,.21.31.31,0,0,1-.08.19A.23.23,0,0,1,42.78,44.8Z" style="fill:#c42127"/><path d="M45,47.29a.84.84,0,0,1-.17.37.8.8,0,0,1-.26.21.94.94,0,0,1-.3.07,1.34,1.34,0,0,1-.4,0,1.24,1.24,0,0,1-.57-.23.43.43,0,0,1-.16-.46.4.4,0,0,1,.15-.26.48.48,0,0,1,.4-.1.06.06,0,0,1,.06.06s0,0,0,.08a.47.47,0,0,0-.06.19.22.22,0,0,0,.06.21.32.32,0,0,0,.22.13.43.43,0,0,0,.23,0,.28.28,0,0,0,.14-.09.44.44,0,0,0,.08-.17A.3.3,0,0,0,44.3,47a1.3,1.3,0,0,0-.33-.23,1,1,0,0,1-.32-.27.45.45,0,0,1-.1-.39.68.68,0,0,1,.35-.52,1.27,1.27,0,0,1,.74-.07,2,2,0,0,1,.4.12c.14.06.2.13.19.21a.72.72,0,0,1-.09.2c0,.06-.08.09-.12.08s0,0,0,0a.33.33,0,0,1,0-.06l-.12-.1a.34.34,0,0,0-.18-.08l-.1,0h-.09l-.13,0a.21.21,0,0,0-.16.18.14.14,0,0,0,0,.13l.05.07.07.06.07,0,.09.06.1.06C44.93,46.72,45.09,47,45,47.29Z" style="fill:#c42127"/><path d="M45.71,46.06l.06-.21s0,0,.09,0l.2,0,.06-.42v0c0-.08.1-.14.25-.19a.79.79,0,0,1,.39,0s0,0,0,.05h0c0,.09-.1.33-.19.71l.32,0H47s0,0,0,.07a.42.42,0,0,1-.09.15c-.06.05-.11.08-.16.07l-.24,0c0,.12-.08.32-.14.59s-.1.51-.14.69-.05.31-.07.41,0,.16,0,.22v.12s0,0,0,0,0,.05-.08,0a1.57,1.57,0,0,1-.42-.13c-.13-.07-.19-.15-.17-.24A14.38,14.38,0,0,0,46,46.16l-.24,0h0A.07.07,0,0,1,45.71,46.06Z" style="fill:#c42127"/></svg>